<?xml version="1.0" encoding="UTF-8"?>
<!DOCTYPE svg PUBLIC "-//W3C//DTD SVG 1.1//EN" "http://www.w3.org/Graphics/SVG/1.1/DTD/svg11.dtd">
<!-- Creator: CorelDRAW 2020 (64-Bit) -->
<svg xmlns="http://www.w3.org/2000/svg" xml:space="preserve" width="41.6667in" height="31.25in" version="1.1" style="shape-rendering:geometricPrecision; text-rendering:geometricPrecision; image-rendering:optimizeQuality; fill-rule:evenodd; clip-rule:evenodd"
viewBox="0 0 41666.66 31249.99"
 xmlns:xlink="http://www.w3.org/1999/xlink"
 xmlns:xodm="http://www.corel.com/coreldraw/odm/2003">
 <defs>
  <style type="text/css">
   <![CDATA[
    .fil0 {fill:#373F47}
    .fil1 {fill:#373F47;fill-rule:nonzero}
   ]]>
  </style>
 </defs>
 <g id="Delivery_x0020_Icon">
  <metadata id="CorelCorpID_0Corel-Layer"/>
  <g id="_1854277901984">
   <path class="fil0" d="M22353.06 25639.4c1379.42,0 2497.65,1118.23 2497.65,2497.65 0,1379.42 -1118.23,2497.65 -2497.65,2497.65 -1379.42,0 -2497.65,-1118.23 -2497.65,-2497.65 0,-1379.42 1118.23,-2497.65 2497.65,-2497.65zm0 789.43c943.43,0 1708.23,764.8 1708.23,1708.23 0,943.43 -764.8,1708.23 -1708.23,1708.23 -943.43,0 -1708.22,-764.8 -1708.22,-1708.23 0,-943.43 764.8,-1708.23 1708.22,-1708.23z"/>
   <polygon class="fil1" points="15953.56,11379 22267.32,8512.91 25133.31,14826.67 18819.68,17692.66 "/>
   <polygon class="fil1" points="12935.63,4498.89 18131.6,2140.21 20545.16,7457.06 15349.19,9815.74 "/>
   <path class="fil1" d="M19399.07 18969.09l8018.32 -3639.9 3696.91 8143.66 -6603.06 2997.37c-515.45,-644.63 -1305.32,-1060.13 -2192.66,-1069.58l-2919.52 -6431.55z"/>
   <path class="fil1" d="M31767.83 20463.53l1523.17 3355.27c68.66,151.25 26.24,300.56 -125.01,369.26l-8060.62 3659.05c-57.59,-410.73 -202.77,-793.39 -416.18,-1128.36l7677.57 -3485.17 -1144.88 -2522.18c-68.67,-151.25 13.04,-336.22 164.29,-404.89 75.46,-34.28 149.64,-30.77 221.85,-4.07 72.05,27.72 125.77,85.74 159.82,161.1zm-11172.13 5494.3l-10393.62 -22896.39 -1516.76 -596.43c-174.8,-65.15 -290.12,-203.53 -361.57,-360.98 -71.88,-158.28 -75.56,-346.5 -9.89,-521.69 131.88,-349.81 526.39,-528.88 875.78,-397.53l1798.61 702.3c174.73,65.15 371,459.07 389.98,500.81l9.26 20.59c0,0 0,0 0.39,0.79l10452.57 23026.04c-461.07,72.8 -885.37,256.3 -1244.74,522.51z"/>
  </g>
 </g>
</svg>
